<?xml version="1.0" standalone="no"?>
<!DOCTYPE svg PUBLIC "-//W3C//DTD SVG 1.1//EN" "http://www.w3.org/Graphics/SVG/1.1/DTD/svg11.dtd" >
<svg xmlns="http://www.w3.org/2000/svg">
<metadata>
Created by FontPrep 20130207 at Sun Mar 30 18:02:16 2014
 By Rami Jegham
Futura is a registered trademark of Fundicion Tipografica Neufville S. A.
</metadata>
<defs>
<font id="916cf0bcce4fa58c64872766190765db" horiz-adv-x='1024' >
  <font-face 
    font-family="FuturaLT-Bold"
    font-weight="700"
    font-stretch="normal"
    units-per-em="2048"
    panose-1="2 0 8 3 0 0 0 0 0 0"
    ascent="1638"
    descent="-410"
    x-height="1051"
    cap-height="1544"
    bbox="-350 -541.008 2951 2130"
    underline-thickness="102"
    underline-position="-205"
    unicode-range="U+0020-FFFD"
  />
<missing-glyph horiz-adv-x="702" 
 />
    <glyph glyph-name=".notdef" unicode="&#xfffd;" horiz-adv-x="702" 
 />
    <glyph glyph-name=".null" horiz-adv-x="0" 
 />
    <glyph glyph-name="nonmarkingreturn" horiz-adv-x="681" 
 />
    <glyph glyph-name="space" unicode=" " horiz-adv-x="702" 
 />
    <glyph glyph-name="exclam" unicode="!" horiz-adv-x="786" 
d="M201 524v1020h387v-1020h-387zM393 438q100 0 170 -70t70 -168q0 -99 -70 -170t-170 -71t-170 71q-69 71 -69 170t69 169q70 69 170 69z" />
    <glyph glyph-name="quotedbl" unicode="&#x22;" horiz-adv-x="1024" 
d="M580 1544h348l-56 -678h-237zM96 1544h348l-55 -678h-237z" />
    <glyph glyph-name="numbersign" unicode="#" 
d="M637 840l-49 -254h209l53 254h-213zM1266 1071v-231h-201l-49 -254h192v-232h-241l-68 -354h-217l68 354h-207l-68 -354h-217l68 354h-187v232h232l49 254h-197v231h240l80 416h217l-80 -416h207l80 416h215l-80 -416h164z" />
    <glyph glyph-name="dollar" unicode="$" 
d="M227 1069q0 177 118 319t300 154v248h191v-248q221 -20 372 -119l-151 -297q-125 100 -262 101q-74 0 -124 -29t-50 -91t68 -97t199 -80t221 -109q89 -65 123 -140t34 -177q0 -393 -430 -500v-256h-191v244q-129 0 -279 57t-227 129l168 309q78 -71 178 -121
q101 -50 183 -50t142 39q60 40 60 108t-63 100q-63 33 -144 59q-81 25 -114 37q-147 55 -235 143t-87 267z" />
    <glyph glyph-name="percent" unicode="%" horiz-adv-x="1996" 
d="M1536 530q-72 0 -123 -51t-51 -123t51 -122t123 -50t123 50t51 122t-51 123t-123 51zM1536 735q180 0 301 -99q121 -100 121 -278t-119 -278t-303 -100t-303 100t-119 278t121 278t301 99zM1346 1544h200l-897 -1544h-200zM461 1360q-72 0 -123 -51t-51 -123t51 -122
t123 -50t123 50t51 122t-51 123t-123 51zM461 1565q180 1 301 -99t121 -278t-119 -278t-303 -101q-184 0 -303 100q-119 101 -119 279t121 278t301 99z" />
    <glyph glyph-name="ampersand" unicode="&#x26;" horiz-adv-x="1736" 
d="M573 -41q-209 0 -352 119t-143 323q0 163 85 261t247 169l36 17l-32 45q-26 26 -29 36q-4 11 -16 27q-11 16 -15 24t-22 42q-29 56 -29 139q0 193 142 309t337 115q195 0 339 -115t145 -305q0 -133 -75 -217t-212 -153l195 -205q131 117 202 219l228 -217l-195 -209
l-18 -18l346 -365h-502l-133 143q-270 -184 -529 -184zM948 1169q0 59 -38 101t-95 43q-57 0 -94 -36t-37 -81t25 -89q25 -45 39 -61t57 -65q143 80 143 188zM494 461q0 -66 53 -104q53 -37 140 -37t196 63l-244 262q-145 -90 -145 -184z" />
    <glyph glyph-name="quotesingle" unicode="'" horiz-adv-x="512" 
d="M82 1544h348l-55 -678h-238z" />
    <glyph glyph-name="parenleft" unicode="(" horiz-adv-x="720" 
d="M385 561q0 -239 60 -495t176 -431l-224 -127q-150 197 -223 493q-74 297 -74 575t77 560t220 482l224 -127q-236 -379 -236 -930z" />
    <glyph glyph-name="parenright" unicode=")" horiz-adv-x="720" 
d="M621 576q0 -278 -74 -575q-74 -296 -223 -493l-224 127q115 175 175 431t61 495q0 551 -236 930l224 127q143 -200 220 -482t77 -560z" />
    <glyph glyph-name="asterisk" unicode="*" horiz-adv-x="989" 
d="M401 1544h185l-11 -219l183 115l92 -156l-195 -102l193 -107l-92 -153l-181 116l9 -207h-185l13 205l-174 -110l-93 155l185 103l-191 104l94 156l179 -113z" />
    <glyph glyph-name="plus" unicode="+" 
d="M549 680v371h307v-371h371v-307h-371v-373h-307v373h-371v307h371z" />
    <glyph glyph-name="comma" unicode="," horiz-adv-x="702" 
d="M311 391h351l-377 -680h-240z" />
    <glyph glyph-name="hyphenminus" unicode="-" horiz-adv-x="802" 
d="M109 811h585v-307h-585v307z" />
    <glyph glyph-name="period" unicode="." horiz-adv-x="702" 
d="M352 438q100 0 170 -70t70 -168q0 -99 -70 -170t-170 -71t-170 71t-70 170t70 169q70 69 170 69z" />
    <glyph glyph-name="slash" unicode="/" horiz-adv-x="1185" 
d="M838 1700h292l-782 -1890h-293z" />
    <glyph glyph-name="zero" unicode="0" 
d="M702 1251q-72 0 -126 -52t-90 -163q-37 -111 -39 -219q-1 -109 11 -183t38 -156q27 -81 81 -133q53 -52 125 -52t126 52t81 133q49 147 49 295t-49 294q-27 80 -81 132t-126 52zM702 1606q166 0 295 -73t206 -195q155 -246 155 -566q0 -255 -103 -476t-308 -309
q-112 -48 -245 -48q-132 0 -244 48q-204 88 -308 308q-103 220 -103 477q0 320 155 566q78 122 206 195t294 73z" />
    <glyph glyph-name="one" unicode="1" 
d="M551 1204h-221v340h622v-1544h-401v1204z" />
    <glyph glyph-name="two" unicode="2" 
d="M1309 340v-340h-1241l630 686q176 193 176 379q0 78 -50 139q-50 62 -127 62t-122 -54t-45 -135q0 -33 7 -65h-443q10 268 171 431t421 163t433 -152t173 -397q0 -157 -60 -267t-190 -227l-239 -223h506z" />
    <glyph glyph-name="three" unicode="3" 
d="M709 1606q229 0 368 -119t140 -330q0 -98 -41 -185t-121 -132q117 -31 185 -147t67 -260q0 -144 -87 -263q-88 -119 -222 -175t-291 -56q-415 0 -587 358q-52 109 -50 205h409q1 -94 61 -156t154 -63q94 0 155 57q60 57 60 146q0 90 -63 150t-150 60q-25 0 -69 -12v268
h41q78 0 127 46t49 120t-45 117t-117 43t-117 -50t-43 -128h-372q22 230 176 368t383 138z" />
    <glyph glyph-name="four" unicode="4" 
d="M782 627v594h-4l-360 -594h364zM1155 627h186v-308h-186v-319h-373v319h-749v256l596 969h526v-917z" />
    <glyph glyph-name="five" unicode="5" horiz-adv-x="1411" 
d="M1157 1204h-534l-27 -176l127 10q233 18 390 -146t157 -412q0 -249 -199 -412q-161 -129 -449 -129t-505 139l59 379q199 -178 430 -178q98 1 172 65t74 162q0 128 -101 196t-249 68t-283 -63l135 837h803v-340z" />
    <glyph glyph-name="six" unicode="6" 
d="M692 254q104 0 176 75t72 180t-72 179t-176 74t-179 -74t-75 -179t75 -180t179 -75zM862 1065q220 0 358 -161t138 -382q0 -272 -193 -428t-468 -156t-443 134q-94 78 -150 192t-57 232q0 291 248 614l332 434h454l-438 -522l4 -4q106 47 215 47z" />
    <glyph glyph-name="seven" unicode="7" 
d="M145 1204v340h1268l-887 -1544h-440l705 1204h-646z" />
    <glyph glyph-name="eight" unicode="8" 
d="M702 1606q215 0 371 -116t156 -325q0 -121 -69 -218t-175 -132v-4q141 -47 224 -153t83 -254q0 -150 -94 -260q-175 -205 -495 -205t-496 205q-94 110 -94 260t83 254q83 105 224 153v4q-106 35 -175 132t-69 218q0 209 156 325t370 116zM702 649q-76 0 -130 -56
t-54 -135t54 -134q54 -56 130 -56t130 56t55 134q0 79 -54 135q-55 56 -131 56zM702 1327q-70 0 -120 -51t-50 -123t50 -123t120 -51t120 51t50 123t-50 123t-120 51z" />
    <glyph glyph-name="nine" unicode="9" 
d="M714 1288q-105 0 -177 -74t-72 -180t72 -180t177 -74t180 74t75 180t-75 180t-180 74zM543 477q-219 0 -358 161q-138 161 -138 384q0 272 193 428t470 156q431 0 592 -324q56 -115 56 -235q0 -287 -248 -615l-330 -432h-456l440 520l-4 4q-106 -47 -217 -47z" />
    <glyph glyph-name="colon" unicode=":" horiz-adv-x="702" 
d="M352 1128q100 0 170 -70t70 -168q0 -99 -70 -170t-170 -71t-170 71t-70 170t70 169q70 69 170 69zM352 438q100 0 170 -70t70 -168q0 -99 -70 -170t-170 -71t-170 71t-70 170t70 169q70 69 170 69z" />
    <glyph glyph-name="semicolon" unicode=";" horiz-adv-x="702" 
d="M446 1128q100 0 170 -70t70 -168q0 -99 -70 -170t-170 -71t-170 71t-70 170t70 169q70 69 170 69zM283 391h350l-377 -680h-240z" />
    <glyph glyph-name="less" unicode="&#x3c;" 
d="M203 403v246l1001 373v-307l-561 -187v-4l561 -186v-307z" />
    <glyph glyph-name="equal" unicode="=" 
d="M178 434h1049v-307h-1049v307zM178 926h1049v-308h-1049v308z" />
    <glyph glyph-name="greater" unicode="&#x3e;" 
d="M1204 649v-246l-1001 -372v307l561 186v4l-561 187v307z" />
    <glyph glyph-name="question" unicode="?" horiz-adv-x="1218" 
d="M575 438q100 0 170 -70t70 -168q0 -99 -70 -170t-170 -71q-99 0 -169 71t-70 170q0 98 70 168t169 70zM381 516v397q47 -10 86 -10q98 0 181 54t83 149q0 63 -43 108q-42 46 -108 46t-104 -43t-38 -113h-407q2 223 167 352t385 129t367 -127q80 -66 128 -161t48 -193
q0 -166 -101 -278t-269 -164v-146h-375z" />
    <glyph glyph-name="at" unicode="@" horiz-adv-x="1515" 
d="M203 768q0 -276 175 -446t427 -170t383 81l168 -135q-270 -139 -551 -139q-334 0 -564 232q-231 231 -231 579t226 582t557 233q285 0 481 -178q229 -203 229 -475t-134 -450t-308 -171q-43 2 -79 36t-48 83q-102 -119 -250 -119t-253 113q-103 113 -103 268
q0 197 116 345q117 149 291 149t262 -127l21 108h194l-102 -532q-20 -105 -8 -121t33 -14q59 6 126 118t74 238q14 250 -144 393q-159 143 -410 143t-415 -174q-164 -175 -163 -450zM573 729q0 -84 42 -138t121 -54q79 -1 127 67q49 68 59 157t-31 144t-121 55t-138 -73
q-58 -74 -59 -158z" />
    <glyph glyph-name="A" unicode="A" horiz-adv-x="1599" 
d="M969 575l-164 492h-4l-166 -492h334zM1077 268h-553l-106 -268h-426l594 1544h438l582 -1544h-428z" />
    <glyph glyph-name="B" unicode="B" horiz-adv-x="1386" 
d="M532 1237v-299h46q98 0 157 31t59 125t-71 119q-72 24 -162 24h-29zM750 0h-619v1544h574q459 0 458 -401q0 -229 -170 -316v-4q315 -41 316 -393q0 -326 -352 -407q-94 -23 -207 -23zM532 639v-332h97q120 1 152 15q33 14 65 31q58 31 57 108q0 77 -21 100
q-22 21 -34 35t-40 21t-42 13q-24 10 -95 9h-139z" />
    <glyph glyph-name="C" unicode="C" horiz-adv-x="1351" 
d="M883 1196q-182 0 -297 -123t-115 -306t116 -301t302 -118q98 0 190 44t156 120v-481q-233 -72 -354 -72q-330 0 -579 225q-249 226 -249 572t228 579q115 117 271 184q321 138 683 -12v-481q-61 82 -155 126t-197 44z" />
    <glyph glyph-name="D" unicode="D" horiz-adv-x="1540" 
d="M532 1204v-864h91q193 0 319 109t125 317q0 208 -121 324q-121 115 -319 114h-95zM131 0v1544h569q324 0 554 -224t230 -548t-230 -548t-554 -224h-569z" />
    <glyph glyph-name="E" unicode="E" horiz-adv-x="1126" 
d="M1010 1204h-478v-258h453v-340h-453v-266h478v-340h-879v1544h879v-340z" />
    <glyph glyph-name="F" unicode="F" horiz-adv-x="1110" 
d="M1018 1204h-486v-258h441v-340h-441v-606h-401v1544h887v-340z" />
    <glyph glyph-name="G" unicode="G" horiz-adv-x="1724" 
d="M874 862h797q-4 -201 -34 -340t-124 -270q-217 -303 -636 -303q-365 0 -594 226t-229 595t230 597q232 228 607 228q242 -1 420 -109t276 -323l-381 -159q-43 114 -129 180t-205 65q-186 0 -294 -147t-107 -340q0 -193 110 -338t298 -145q135 -1 223 69t100 199h-328v315
z" />
    <glyph glyph-name="H" unicode="H" horiz-adv-x="1644" 
d="M532 948h580v596h401v-1544h-401v633h-580v-633h-401v1544h401v-596z" />
    <glyph glyph-name="I" unicode="I" horiz-adv-x="663" 
d="M532 1544v-1544h-401v1544h401z" />
    <glyph glyph-name="J" unicode="J" horiz-adv-x="1001" 
d="M477 1544h402v-1042q0 -252 -131 -398t-381 -145q-250 0 -398 227l232 244q96 -131 161 -131t83 41q11 23 21 46t11 64v1094z" />
    <glyph glyph-name="K" unicode="K" horiz-adv-x="1552" 
d="M532 670v-670h-401v1544h401v-637h5l485 637h498l-615 -731l670 -813h-520l-518 670h-5z" />
    <glyph glyph-name="L" unicode="L" horiz-adv-x="1013" 
d="M532 1544v-1204h482v-340h-883v1544h401z" />
    <glyph glyph-name="M" unicode="M" horiz-adv-x="2013" 
d="M39 0l262 1544h395l314 -825l331 825h400l233 -1544h-401l-113 889h-4l-371 -889h-159l-355 889h-4l-129 -889h-399z" />
    <glyph glyph-name="N" unicode="N" horiz-adv-x="1804" 
d="M131 0v1544h401l736 -944h4v944h401v-1544h-401l-735 946h-5v-946h-401z" />
    <glyph glyph-name="O" unicode="O" horiz-adv-x="1816" 
d="M907 1206q-178 0 -307 -123t-129 -284q0 -197 127 -329t309 -132t310 132q127 132 126 329q0 163 -129 285t-307 122zM907 1595q223 0 418 -99q195 -100 315 -284t121 -411q-1 -375 -241 -614t-613 -239t-613 240q-240 238 -241 613q0 227 121 411q122 184 316 284
t417 99z" />
    <glyph glyph-name="P" unicode="P" horiz-adv-x="1353" 
d="M532 1221v-385h68q184 0 231 41q56 44 57 146t-54 155q-36 31 -105 37q-70 6 -129 6h-68zM131 0v1544h614q260 0 411 -126t151 -382q0 -524 -547 -524h-228v-512h-401z" />
    <glyph glyph-name="Q" unicode="Q" horiz-adv-x="1816" 
d="M907 -51q-373 1 -613 239t-241 613q0 227 121 411q122 184 316 284t417 99q367 0 611 -228t243 -599q0 -297 -198 -543l260 -264l-369 -57l-123 145q-166 -100 -424 -100zM909 1206q-178 0 -308 -123t-130 -284q0 -197 128 -329t310 -132q63 0 123 20l-248 246l379 47
l109 -112q72 100 71 227q0 176 -128 308t-306 132z" />
    <glyph glyph-name="R" unicode="R" horiz-adv-x="1392" 
d="M532 1237v-385h39q279 0 279 192t-279 193h-39zM532 594v-594h-401v1544h600q242 0 389 -119t148 -356q0 -167 -89 -287t-249 -149l485 -633h-500l-378 594h-5z" />
    <glyph glyph-name="S" unicode="S" horiz-adv-x="1261" 
d="M713 1249q-63 0 -117 -35t-55 -85q-1 -51 33 -83t64 -44t81 -29l102 -31q181 -53 281 -150t100 -272q0 -281 -166 -421t-444 -140t-531 176l172 324q182 -160 357 -160q78 0 136 40t58 116q0 104 -194 161q-6 2 -83 24q-166 48 -275 130t-109 306t149 367
q150 142 383 142q117 0 249 -35t235 -92l-160 -311q-123 102 -266 102z" />
    <glyph glyph-name="T" unicode="T" horiz-adv-x="1091" 
d="M745 1204v-1204h-401v1204h-332v340h1065v-340h-332z" />
    <glyph glyph-name="U" unicode="U" horiz-adv-x="1593" 
d="M1069 1544h401v-868q0 -188 -30 -316t-131 -229q-174 -172 -512 -172t-512 172q-102 100 -132 228t-30 317v868h401v-813q0 -244 65 -332q67 -88 208 -88q74 0 127 26q53 27 81 63q64 83 64 331v813z" />
    <glyph glyph-name="V" unicode="V" horiz-adv-x="1558" 
d="M406 1544l372 -938l375 938h436l-659 -1544h-312l-649 1544h437z" />
    <glyph glyph-name="W" unicode="W" horiz-adv-x="2287" 
d="M387 1544l268 -997h4l324 997h320l303 -997h4l291 997h417l-493 -1544h-410l-270 895h-4l-303 -895h-408l-461 1544h418z" />
    <glyph glyph-name="X" unicode="X" horiz-adv-x="1615" 
d="M588 825l-494 719h494l235 -399l236 399h493l-493 -719l571 -825h-483l-324 504l-354 -504h-485z" />
    <glyph glyph-name="Y" unicode="Y" horiz-adv-x="1462" 
d="M932 0h-402v741l-569 803h481l289 -420l289 420h481l-569 -803v-741z" />
    <glyph glyph-name="Z" unicode="Z" horiz-adv-x="1447" 
d="M1346 340v-340h-1323l731 1204h-607v340h1278l-727 -1204h648z" />
    <glyph glyph-name="bracketleft" unicode="[" horiz-adv-x="716" 
d="M391 1401v-1675h219v-218h-504v2110h504v-217h-219z" />
    <glyph glyph-name="backslash" unicode="\" horiz-adv-x="1185" 
d="M55 1700h295l780 -1700h-290z" />
    <glyph glyph-name="bracketright" unicode="]" horiz-adv-x="716" 
d="M326 -274v1675h-220v217h504v-2110h-504v218h220z" />
    <glyph glyph-name="asciicircum" unicode="^" 
d="M444 696l-233 138l369 772h245l369 -772l-233 -138l-259 551z" />
    <glyph glyph-name="underscore" unicode="_" horiz-adv-x="1024" 
d="M1024 -256h-1024v102h1024v-102z" />
    <glyph glyph-name="grave" unicode="`" horiz-adv-x="823" 
d="M154 1516l227 163l289 -352l-166 -121z" />
    <glyph glyph-name="a" unicode="a" horiz-adv-x="1396" 
d="M1272 1051v-1051h-373v117h-4q-47 -76 -133 -114t-184 -38q-229 0 -380 165t-151 396q1 232 149 396t367 164t336 -138v103h373zM672 762q-112 0 -176 -69t-64 -170t65 -168t175 -67t176 68q64 66 64 167t-65 170q-64 69 -175 69z" />
    <glyph glyph-name="b" unicode="b" horiz-adv-x="1396" 
d="M711 762q-111 0 -175 -69t-65 -170q0 -101 65 -168q66 -67 176 -67t174 68q64 66 64 167t-64 170t-175 69zM111 0v1700h372v-752q119 137 337 137t367 -163q148 -164 148 -396q1 -232 -149 -396q-150 -165 -381 -165q-98 0 -183 38t-135 114h-4v-117h-372z" />
    <glyph glyph-name="c" unicode="c" horiz-adv-x="989" 
d="M432 524q0 -112 74 -184t186 -72t189 72v-315q-119 -59 -263 -60q-238 0 -404 157q-166 158 -167 400q0 242 169 403t419 160q135 0 246 -61v-315q-100 73 -201 73q-100 0 -174 -74t-74 -184z" />
    <glyph glyph-name="d" unicode="d" horiz-adv-x="1396" 
d="M686 762q-112 0 -176 -69t-64 -170t65 -168t175 -67t176 68q64 66 64 167t-64 170t-176 69zM913 0v117h-4q-47 -76 -133 -114t-184 -38q-229 0 -380 165t-151 396q1 232 149 396t368 164t335 -138v752h373v-1700h-373z" />
    <glyph glyph-name="e" unicode="e" horiz-adv-x="1249" 
d="M1202 502v-39h-784q0 -233 233 -234q121 0 178 97h359q-43 -176 -193 -268t-342 -93q-270 -1 -439 147t-169 410t161 413t427 151t418 -157q151 -157 151 -427zM642 844q-82 0 -142 -43t-76 -123h432q-14 74 -74 120t-140 46z" />
    <glyph glyph-name="f" unicode="f" horiz-adv-x="794" 
d="M532 743v-743h-372v743h-131v308h131v133q0 131 18 210t88 158q143 168 367 168q88 0 160 -37v-321q-81 35 -141 35q-120 0 -120 -176v-170h261v-308h-261z" />
    <glyph glyph-name="g" unicode="g" horiz-adv-x="1386" 
d="M676 770q-112 0 -176 -69t-64 -170t65 -167t175 -67q110 0 176 67q64 68 64 168t-65 169q-64 69 -175 69zM1276 1051v-949q0 -326 -155 -476t-450 -150t-485 176q-100 94 -116 225h417q15 -53 67 -79t110 -25q139 -1 189 77t50 224v49q-143 -143 -334 -143
q-227 0 -372 154t-145 386t151 399q152 167 373 167t323 -146h4v111h373z" />
    <glyph glyph-name="h" unicode="h" horiz-adv-x="1353" 
d="M123 1700h373v-782h4q127 168 329 168q201 0 301 -120q100 -118 101 -323v-643h-373v539q0 115 -34 183t-135 66q-101 0 -147 -72t-46 -177v-539h-373v1700z" />
    <glyph glyph-name="i" unicode="i" horiz-adv-x="618" 
d="M309 1663q85 0 147 -61q62 -62 62 -148t-61 -147t-147 -61t-148 60q-61 62 -62 148q0 86 62 148t147 61zM496 1051v-1051h-373v1051h373z" />
    <glyph glyph-name="j" unicode="j" horiz-adv-x="618" 
d="M309 1663q85 0 147 -61q62 -62 62 -148t-61 -147t-147 -61t-148 60q-61 62 -62 148q0 86 62 148t147 61zM496 1051v-1575h-373v1575h373z" />
    <glyph glyph-name="k" unicode="k" horiz-adv-x="1409" 
d="M496 1700v-1028l387 379h510l-527 -486l559 -565h-522l-407 428v-428h-373v1700h373z" />
    <glyph glyph-name="l" unicode="l" horiz-adv-x="618" 
d="M496 1700v-1700h-373v1700h373z" />
    <glyph glyph-name="m" unicode="m" horiz-adv-x="2025" 
d="M496 1051v-131h4q125 166 331 165q250 0 359 -200q53 96 149 148t207 52q358 0 359 -415v-670h-373v502q0 167 -31 219q-14 25 -46 47t-79 20q-161 -2 -174 -207q-2 -32 -2 -79v-502h-373v502q0 144 -15 180q-14 36 -32 64q-33 49 -118 50t-120 -54q-34 -55 -40 -114
q-6 -60 -6 -126v-502h-373v1051h373z" />
    <glyph glyph-name="n" unicode="n" horiz-adv-x="1353" 
d="M496 1051v-136h4q115 170 327 170q404 0 404 -436v-649h-373v581q0 53 -10 92q-19 73 -66 94t-92 21q-195 0 -194 -243v-545h-373v1051h373z" />
    <glyph glyph-name="o" unicode="o" horiz-adv-x="1355" 
d="M678 762q-112 0 -176 -69t-64 -170t65 -168t175 -67t176 68q64 66 64 167t-64 170t-176 69zM678 1085q266 1 449 -151t183 -410t-182 -408q-184 -150 -449 -151q-265 0 -450 151q-184 150 -184 408t183 410q184 151 450 151z" />
    <glyph glyph-name="p" unicode="p" horiz-adv-x="1396" 
d="M711 762q-111 0 -175 -69t-65 -170q0 -101 65 -168q66 -67 176 -67t174 68q64 66 64 167t-64 170t-175 69zM483 1051v-119h4q49 76 135 115t183 38q229 1 380 -165t151 -398t-149 -394q-147 -163 -367 -163t-337 135v-624h-372v1575h372z" />
    <glyph glyph-name="q" unicode="q" horiz-adv-x="1396" 
d="M686 762q-112 0 -176 -69t-64 -170t65 -168t175 -67t176 68q64 66 64 167t-64 170t-176 69zM1286 1051v-1575h-373v624q-115 -135 -335 -135t-368 163t-148 393q0 229 150 397q151 168 380 167q98 -1 184 -39t133 -114h4v119h373z" />
    <glyph glyph-name="r" unicode="r" horiz-adv-x="927" 
d="M496 1051v-172h4q104 186 340 186h71v-358q-61 35 -157 34q-146 0 -202 -83t-56 -234v-424h-373v1051h373z" />
    <glyph glyph-name="s" unicode="s" horiz-adv-x="1050" 
d="M616 831q-40 0 -78 -18q-38 -19 -38 -51t18 -46q38 -28 71 -34t53 -9t26 -5q305 -61 305 -312q-1 -194 -147 -292t-361 -98t-412 120l135 260q62 -43 146 -75q84 -31 138 -31t91 20t37 51q0 55 -46 75t-104 32q-59 12 -83 18q-106 29 -170 89q-63 59 -63 185t69 213
q132 164 393 162q196 1 346 -67l-125 -238q-96 51 -201 51z" />
    <glyph glyph-name="t" unicode="t" horiz-adv-x="737" 
d="M530 743v-743h-372v743h-121v308h121v315h372v-315h211v-308h-211z" />
    <glyph glyph-name="u" unicode="u" horiz-adv-x="1349" 
d="M117 1051h372v-562q0 -111 40 -169q41 -58 147 -58t146 58t40 169v562h373v-633q0 -453 -559 -453t-559 453v633z" />
    <glyph glyph-name="v" unicode="v" horiz-adv-x="1275" 
d="M387 1051l252 -539l250 539h418l-549 -1051h-238l-551 1051h418z" />
    <glyph glyph-name="w" unicode="w" horiz-adv-x="2039" 
d="M383 1051l262 -570l264 570h221l265 -570l264 570h412l-549 -1051h-242l-260 575l-260 -575h-242l-549 1051h414z" />
    <glyph glyph-name="x" unicode="x" horiz-adv-x="1458" 
d="M494 569l-426 482h473l188 -217l189 217h481l-434 -482l524 -569h-490l-270 311l-270 -311h-490z" />
    <glyph glyph-name="y" unicode="y" horiz-adv-x="1339" 
d="M477 143l-508 908h430l281 -539l274 539h424l-841 -1575h-418z" />
    <glyph glyph-name="z" unicode="z" horiz-adv-x="1144" 
d="M1081 309v-309h-1065l494 741h-428v310h1048l-491 -742h442z" />
    <glyph glyph-name="braceleft" unicode="{" horiz-adv-x="720" 
d="M103 465h-29v213q94 0 118 31t25 77v519q0 147 80 230t152 83h198v-246h-51q-43 0 -66 -20q-24 -20 -26 -40t-2 -61v-460q0 -186 -197 -218v-4q108 -15 152 -69q43 -54 45 -170v-455q0 -92 41 -112q20 -9 53 -9h51v-246h-198q-72 0 -152 83t-80 227v518q0 86 -47 113
q-12 6 -19 10q-11 6 -48 6z" />
    <glyph glyph-name="bar" unicode="|" horiz-adv-x="1185" 
d="M748 1610v-2048h-308v2048h308z" />
    <glyph glyph-name="braceright" unicode="}" horiz-adv-x="720" 
d="M647 465h-29q-36 0 -46 -5t-21 -11q-47 -24 -47 -113v-518q0 -142 -80 -226t-152 -84h-198v246h51q65 0 80 34q14 34 14 87v455q0 169 100 214q37 17 97 25v4q-197 31 -197 218v460q0 39 -3 59t-26 42q-23 20 -65 20h-51v246h198q72 0 152 -83t80 -230v-519
q0 -111 135 -108h8v-213z" />
    <glyph glyph-name="asciitilde" unicode="~" 
d="M461 809q113 -1 253 -109t230 -108q64 0 127 172l234 -199q-135 -229 -244 -289t-228 -6q-51 22 -93 47t-56 33t-93 60q-78 52 -131 52q-52 1 -128 -171l-232 196q16 21 68 93t84 112q33 40 91 78q58 39 118 39z" />
    <glyph glyph-name="nbspace" unicode="&#xa0;" horiz-adv-x="702" 
 />
    <glyph glyph-name="exclamdown" unicode="&#xa1;" horiz-adv-x="786" 
d="M201 522h387v-1020h-387v1020zM393 1090q100 0 170 -70t70 -169t-70 -170t-170 -71t-170 71q-69 71 -69 170t69 169q70 70 170 70z" />
    <glyph glyph-name="cent" unicode="&#xa2;" 
d="M807 20v203q-215 8 -367 171t-152 385t145 376q144 154 374 176v191h190v-203l119 -35v-334q-82 78 -186 78t-178 -71t-74 -177t71 -180t187 -74t180 78v-334q-78 -29 -119 -32v-218h-190z" />
    <glyph glyph-name="sterling" unicode="&#xa3;" 
d="M979 614h-291q18 -51 20 -135t-20 -139l23 -8q195 -70 303 -70q47 0 76 27t28 73h250q-12 -178 -107 -286t-270 -109q-70 0 -164 25t-196 54q-102 30 -182 30q-109 0 -130 -76h-266q27 143 122 252t231 110q53 113 -37 252h-330v156h221q-74 119 -74 262q0 231 161 386
t449 155t422 -138q132 -138 136 -444h-398v72q0 78 -54 136t-138 58t-136 -62t-53 -155q0 -147 84 -270h320v-156z" />
    <glyph glyph-name="currency" unicode="&#xa4;" horiz-adv-x="1411" 
d="M1008 1225q-295 0 -398 -258h670l-39 -156h-663q-8 -57 4 -125h628l-49 -156h-534q115 -244 387 -243q59 1 148 27t145 61v-383q-125 -53 -301 -53q-303 1 -510 161t-271 430h-215l49 156h144q-4 53 -4 84v41h-189l49 156h160q59 279 264 440q205 166 510 166
q113 -1 242 -23t186 -69l-96 -357q-47 37 -143 69t-174 32z" />
    <glyph glyph-name="yen" unicode="&#xa5;" 
d="M1296 913h-290l-115 -172h405v-155h-405v-586h-377v586h-410v155h408l-117 172h-291v156h189l-316 475h455l270 -420l271 420h454l-317 -475h186v-156z" />
    <glyph glyph-name="brokenbar" unicode="&#xa6;" horiz-adv-x="1185" 
d="M748 1354v-512h-308v512h308zM748 330v-512h-308v512h308z" />
    <glyph glyph-name="section" unicode="&#xa7;" 
d="M690 1329q-51 0 -85 -29q-34 -28 -34 -64q1 -36 11 -58t20 -36q10 -12 37 -30t38 -26t45 -22q34 -15 40 -20l227 -114q156 -76 229 -152t72 -221q0 -184 -172 -321q104 -92 104 -250t-78 -261q-150 -196 -468 -196t-477 212q-84 112 -78 265h375q-2 -78 60 -132t134 -54
t117 37t45 92t-18 74q-18 20 -26 29q-7 8 -31 22q-23 14 -29 18t-36 18t-32 15l-324 158q-240 119 -239 338q0 186 176 333q-43 41 -68 109t-24 131q0 184 138 288t330 103q192 0 327 -87q69 -44 111 -119t46 -173h-322q-12 55 -51 89t-90 34zM979 491q0 65 -50 98
q-50 34 -100 58l-335 170q-63 -37 -64 -110q0 -18 9 -42t23 -36q14 -13 19 -19t25 -17t44 -25t34 -15l342 -170q53 43 53 108z" />
    <glyph glyph-name="dieresis" unicode="&#xa8;" horiz-adv-x="1236" 
d="M880 1638q83 0 142 -59t59 -142t-58 -141t-142 -59q-84 0 -144 58q-59 59 -59 143t59 142q60 58 143 58zM355 1638q83 0 143 -59t59 -142q0 -83 -58 -141q-59 -58 -143 -59q-84 0 -143 58q-59 59 -59 143t59 142t142 58z" />
    <glyph glyph-name="copyright" unicode="&#xa9;" horiz-adv-x="1638" 
d="M848 1090q-116 0 -184 -90t-68 -216q0 -125 73 -220t185 -95q76 0 133 43t62 115h184q-16 -143 -125 -229t-254 -87q-201 0 -326 134t-125 337t121 334t326 131q146 0 252 -83t131 -224h-184q-11 72 -67 111t-134 39zM818 152q265 0 443 175q177 175 177 444t-177 445
t-443 177q-266 0 -441 -175q-176 -176 -176 -446t176 -445t441 -175zM819 -41q-339 0 -575 237q-236 238 -236 576t236 576t574 238t576 -238q236 -238 236 -576t-236 -576t-575 -237z" />
    <glyph glyph-name="ordfeminine" unicode="&#xaa;" horiz-adv-x="837" 
d="M575 934v70h-4q-59 -90 -207 -90t-244 98q-97 98 -97 237t96 237q97 98 239 99q142 0 217 -82v62h242v-631h-242zM428 1106q66 0 111 42t45 101t-45 101t-111 43q-66 0 -111 -42q-45 -41 -45 -101t45 -102t111 -42z" />
    <glyph glyph-name="guillemotleft" unicode="&#xab;" horiz-adv-x="1234" 
d="M352 655l264 -356l-210 -147l-353 503l353 504l204 -141zM862 655l264 -356l-211 -147l-352 503l352 504l205 -141z" />
    <glyph glyph-name="logicalnot" unicode="&#xac;" 
d="M920 289v329h-742v308h1049v-637h-307z" />
    <glyph glyph-name="registered" unicode="&#xae;" horiz-adv-x="1638" 
d="M684 842h225q78 0 113 26t35 93q0 68 -63 81t-128 13h-182v-213zM684 715v-357h-188v844h409q166 0 247 -51t81 -207q0 -115 -57 -168t-172 -61l204 -357h-204l-189 357h-131zM818 152q265 0 443 175q177 175 177 444t-177 445t-443 177q-266 0 -441 -175
q-176 -176 -176 -446t176 -445t441 -175zM819 -41q-339 0 -575 237q-236 238 -236 576t236 576t574 238t576 -238q236 -238 236 -576t-236 -576t-575 -237z" />
    <glyph glyph-name="macron" unicode="&#xaf;" horiz-adv-x="1234" 
d="M154 1540h925v-219h-925v219z" />
    <glyph glyph-name="degree" unicode="&#xb0;" horiz-adv-x="819" 
d="M543 1277q0 54 -40 94t-94 40q-55 0 -95 -40t-39 -94t40 -93t95 -39t94 39q39 39 39 93zM717 1277q0 -126 -91 -216t-219 -90t-217 89q-88 89 -88 216q-4 127 86 218t218 91t220 -91q91 -91 91 -217z" />
    <glyph glyph-name="plusminus" unicode="&#xb1;" 
d="M178 307h1049v-307h-1049v307zM549 1049v290h307v-290h371v-308h-371v-290h-307v290h-371v308h371z" />
    <glyph glyph-name="twosuperior" unicode="&#xb2;" horiz-adv-x="843" 
d="M813 846v-203h-807l412 412q115 115 114 227q0 45 -32 82q-33 37 -83 37t-80 -32t-30 -81q0 -10 4 -39h-286q6 162 110 259q105 98 275 98t282 -92t111 -238q0 -94 -39 -160t-123 -135l-156 -135h328z" />
    <glyph glyph-name="threesuperior" unicode="&#xb3;" horiz-adv-x="843" 
d="M369 1214h26q51 0 83 28t32 72t-29 70t-75 25q-46 0 -75 -31q-30 -31 -30 -75h-242q15 143 115 223t248 80t240 -72t92 -202t-107 -185q76 -16 120 -87t44 -147q0 -143 -115 -224q-114 -81 -288 -81t-285 105q-49 45 -83 109t-32 122h266q0 -55 39 -92t101 -37t100 34
q39 34 39 87t-41 89t-96 36l-47 -6v159z" />
    <glyph glyph-name="acute" unicode="&#xb4;" horiz-adv-x="823" 
d="M670 1516l-351 -310l-165 121l288 352z" />
    <glyph glyph-name="paragraph" unicode="&#xb6;" 
d="M539 1544h772v-186h-135v-1706h-207v1704h-191v-1704h-207v942q-199 18 -323 118t-150 322q-20 186 120 348q141 162 321 162z" />
    <glyph glyph-name="periodcentered" unicode="&#xb7;" horiz-adv-x="702" 
d="M352 764q100 0 170 -70t70 -169t-70 -170t-170 -71t-170 72q-70 70 -70 169t70 169t170 70z" />
    <glyph glyph-name="cedilla" unicode="&#xb8;" horiz-adv-x="778" 
d="M623 -193l-310 -292l-159 100l266 324z" />
    <glyph glyph-name="onesuperior" unicode="&#xb9;" horiz-adv-x="843" 
d="M334 1366h-144v203h404v-926h-260v723z" />
    <glyph glyph-name="ordmasculine" unicode="&#xba;" horiz-adv-x="839" 
d="M420 1391q-62 0 -108 -41q-46 -40 -46 -100t44 -101t110 -41t110 41t45 100q0 59 -46 101t-109 41zM420 1585q172 0 292 -90t120 -246q0 -155 -120 -245t-292 -90t-291 90t-119 246t119 245q119 90 291 90z" />
    <glyph glyph-name="guillemotright" unicode="&#xbb;" horiz-adv-x="1234" 
d="M618 299l265 356l-258 363l204 141l353 -504l-353 -503zM109 299l264 356l-258 363l204 141l353 -504l-353 -503z" />
    <glyph glyph-name="onequarter" unicode="&#xbc;" horiz-adv-x="2107" 
d="M1321 1544h201l-897 -1544h-201zM1540 375v356h-4l-233 -356h237zM1782 377h121v-184h-121v-193h-242v193h-487v153l387 580h342v-549zM348 1341h-143v203h403v-926h-260v723z" />
    <glyph glyph-name="onehalf" unicode="&#xbd;" horiz-adv-x="2107" 
d="M1264 1544h200l-897 -1544h-200zM1903 203v-203h-807l411 412q115 115 115 227q0 45 -33 82t-83 37t-80 -32t-29 -81q0 -10 4 -39h-287q6 162 110 259t275 97q170 0 282 -90q112 -92 111 -239q0 -93 -38 -159t-123 -136l-156 -135h328zM348 1341h-143v203h403v-926h-260
v723z" />
    <glyph glyph-name="threequarters" unicode="&#xbe;" horiz-adv-x="2107" 
d="M463 1153h26q51 0 83 28q32 27 32 71t-29 70t-75 26t-75 -31q-30 -31 -30 -76h-241q14 143 114 223t248 80t241 -71q91 -72 91 -202t-107 -186q76 -16 120 -87t44 -146q-1 -143 -115 -224t-288 -81q-256 0 -368 214q-34 65 -32 122h267q0 -57 40 -93t100 -36t99 34t39 86
q0 54 -41 90t-96 35l-47 -6v160zM1497 1544h201l-897 -1544h-201zM1642 375v356h-4l-233 -356h237zM1884 377h121v-184h-121v-193h-242v193h-487v153l387 580h342v-549z" />
    <glyph glyph-name="questiondown" unicode="&#xbf;" horiz-adv-x="1218" 
d="M643 1090q100 0 170 -70t70 -169t-70 -170t-170 -71t-170 71t-70 170t70 169t170 70zM838 528v-397q-47 10 -86 10q-98 0 -182 -54t-83 -148q0 -63 43 -109t109 -45q65 0 103 43t38 113h408q-2 -223 -167 -353t-385 -129q-220 0 -368 127q-80 66 -128 161t-48 194
q0 165 102 277t269 165v145h375z" />
    <glyph glyph-name="Agrave" unicode="&#xc0;" horiz-adv-x="1599" 
d="M502 1948l227 163l289 -352l-166 -121zM969 575l-164 492h-4l-166 -492h334zM1077 268h-553l-106 -268h-426l594 1544h438l582 -1544h-428z" />
    <glyph glyph-name="Aacute" unicode="&#xc1;" horiz-adv-x="1599" 
d="M1100 1948l-350 -310l-166 121l288 352zM969 575l-164 492h-4l-166 -492h334zM1077 268h-553l-106 -268h-426l594 1544h438l582 -1544h-428z" />
    <glyph glyph-name="Acircumflex" unicode="&#xc2;" horiz-adv-x="1599" 
d="M350 1794l447 336l452 -336l-157 -172l-295 227l-295 -227zM969 575l-164 492h-4l-166 -492h334zM1077 268h-553l-106 -268h-426l594 1544h438l582 -1544h-428z" />
    <glyph glyph-name="Atilde" unicode="&#xc3;" horiz-adv-x="1599" 
d="M618 2013q56 0 176 -35q120 -34 156 -34t54 17q16 17 30 56h174q-10 -127 -78 -225t-188 -98q-52 0 -158 38t-150 37t-61 -36q-4 -10 -12 -39h-168l-2 22q0 106 45 182q68 115 182 115zM969 575l-164 492h-4l-166 -492h334zM1077 268h-553l-106 -268h-426l594 1544h438
l582 -1544h-428z" />
    <glyph glyph-name="Adieresis" unicode="&#xc4;" horiz-adv-x="1599" 
d="M1063 2071q84 -1 142 -59q59 -58 59 -142t-58 -142t-143 -59q-84 0 -143 58q-60 59 -60 143t60 142t143 59zM539 2071q84 -1 142 -59t58 -142t-58 -142t-142 -59q-84 0 -144 58q-59 59 -59 143t60 142t143 59zM969 575l-164 492h-4l-166 -492h334zM1077 268h-553
l-106 -268h-426l594 1544h438l582 -1544h-428z" />
    <glyph glyph-name="Aring" unicode="&#xc5;" horiz-adv-x="1599" 
d="M920 1835q0 45 -36 67t-84 21q-48 1 -84 -21t-36 -67t36 -67t84 -22t84 22t36 67zM798 2071q132 -1 224 -57t92 -178t-91 -179t-221 -57t-223 54q-93 56 -94 179q1 123 91 181t222 57zM969 575l-164 492h-4l-166 -492h334zM1077 268h-553l-106 -268h-426l594 1544h438
l582 -1544h-428z" />
    <glyph glyph-name="AE" unicode="&#xc6;" horiz-adv-x="2101" 
d="M1171 0l-100 268h-559l-96 -268h-424l596 1544h946l125 -340h-508l94 -258h506l129 -340h-510l100 -266h508l123 -340h-930zM963 575l-166 459l-174 -459h340z" />
    <glyph glyph-name="Ccedilla" unicode="&#xc7;" horiz-adv-x="1351" 
d="M961 -193l-310 -292l-159 100l266 324zM883 1196q-182 0 -297 -123t-115 -306t116 -301t302 -118q98 0 190 44t156 120v-481q-233 -72 -354 -72q-330 0 -579 225q-249 226 -249 572t228 579q115 117 271 184q321 138 683 -12v-481q-61 82 -155 126t-197 44z" />
    <glyph glyph-name="Egrave" unicode="&#xc8;" horiz-adv-x="1126" 
d="M305 1948l227 163l289 -352l-166 -121zM1010 1204h-478v-258h453v-340h-453v-266h478v-340h-879v1544h879v-340z" />
    <glyph glyph-name="Eacute" unicode="&#xc9;" horiz-adv-x="1126" 
d="M821 1948l-350 -310l-166 121l289 352zM1010 1204h-478v-258h453v-340h-453v-266h478v-340h-879v1544h879v-340z" />
    <glyph glyph-name="Ecircumflex" unicode="&#xca;" horiz-adv-x="1126" 
d="M113 1794l446 336l453 -336l-158 -172l-295 227l-295 -227zM1010 1204h-478v-258h453v-340h-453v-266h478v-340h-879v1544h879v-340z" />
    <glyph glyph-name="Edieresis" unicode="&#xcb;" horiz-adv-x="1126" 
d="M825 2071q85 -1 143 -59t58 -142t-58 -142t-142 -59q-84 0 -144 58q-59 59 -59 143t59 142t143 59zM301 2071q84 -1 142 -59q59 -58 59 -142t-58 -142t-143 -59q-84 0 -143 58q-60 59 -60 143t60 142t143 59zM1010 1204h-478v-258h453v-340h-453v-266h478v-340h-879v1544
h879v-340z" />
    <glyph glyph-name="Igrave" unicode="&#xcc;" horiz-adv-x="663" 
d="M43 1948l227 163l289 -352l-166 -121zM532 1544v-1544h-401v1544h401z" />
    <glyph glyph-name="Iacute" unicode="&#xcd;" horiz-adv-x="663" 
d="M621 1948l-351 -310l-166 121l289 352zM532 1544v-1544h-401v1544h401z" />
    <glyph glyph-name="Icircumflex" unicode="&#xce;" horiz-adv-x="663" 
d="M-88 1794l446 336l453 -336l-158 -172l-295 227l-295 -227zM532 1544v-1544h-401v1544h401z" />
    <glyph glyph-name="Idieresis" unicode="&#xcf;" horiz-adv-x="663" 
d="M593 2071q83 -1 142 -59t59 -142t-58 -142t-142 -59q-84 0 -143 58q-59 59 -59 143t58 142q60 58 143 59zM-133 1870q-1 84 59 142t143 59q83 -1 142 -59t59 -142t-58 -142t-142 -59q-84 0 -144 58q-59 59 -59 143zM532 1544v-1544h-401v1544h401z" />
    <glyph glyph-name="Eth" unicode="&#xd0;" horiz-adv-x="1540" 
d="M131 0v633h-172v315h172v596h520q365 0 599 -217t234 -554t-237 -555q-238 -218 -592 -218h-524zM532 1204v-256h226v-315h-226v-293h91q193 0 319 109t125 317q0 208 -121 324q-121 115 -319 114h-95z" />
    <glyph glyph-name="Ntilde" unicode="&#xd1;" horiz-adv-x="1804" 
d="M721 2013q55 0 175 -35q120 -34 157 -34t53 17t31 56h174q-10 -127 -78 -225t-189 -98q-53 0 -158 38q-104 38 -140 38t-51 -14q-15 -13 -19 -23t-12 -39h-168l-2 22q0 106 45 182q68 115 182 115zM131 0v1544h401l736 -944h4v944h401v-1544h-401l-735 946h-5v-946h-401z
" />
    <glyph glyph-name="Ograve" unicode="&#xd2;" horiz-adv-x="1816" 
d="M610 1948l228 163l288 -352l-165 -121zM907 1206q-178 0 -307 -123t-129 -284q0 -197 127 -329t309 -132t310 132q127 132 126 329q0 163 -129 285t-307 122zM907 1595q223 0 418 -99q195 -100 315 -284t121 -411q-1 -375 -241 -614t-613 -239t-613 240
q-240 238 -241 613q0 227 121 411q122 184 316 284t417 99z" />
    <glyph glyph-name="Oacute" unicode="&#xd3;" horiz-adv-x="1816" 
d="M1208 1948l-350 -310l-166 121l289 352zM907 1206q-178 0 -307 -123t-129 -284q0 -197 127 -329t309 -132t310 132q127 132 126 329q0 163 -129 285t-307 122zM907 1595q223 0 418 -99q195 -100 315 -284t121 -411q-1 -375 -241 -614t-613 -239t-613 240
q-240 238 -241 613q0 227 121 411q122 184 316 284t417 99z" />
    <glyph glyph-name="Ocircumflex" unicode="&#xd4;" horiz-adv-x="1816" 
d="M459 1794l446 336l453 -336l-158 -172l-295 227l-295 -227zM907 1206q-178 0 -307 -123t-129 -284q0 -197 127 -329t309 -132t310 132q127 132 126 329q0 163 -129 285t-307 122zM907 1595q223 0 418 -99q195 -100 315 -284t121 -411q-1 -375 -241 -614t-613 -239
t-613 240q-240 238 -241 613q0 227 121 411q122 184 316 284t417 99z" />
    <glyph glyph-name="Otilde" unicode="&#xd5;" horiz-adv-x="1816" 
d="M727 2013q55 0 175 -35q120 -34 157 -34t53 17t31 56h174q-10 -127 -78 -225t-188 -98q-53 0 -159 38t-140 38q-36 0 -51 -14q-15 -13 -19 -23t-12 -39h-168l-2 22q0 106 45 182q68 115 182 115zM907 1206q-178 0 -307 -123t-129 -284q0 -197 127 -329t309 -132t310 132
q127 132 126 329q0 163 -129 285t-307 122zM907 1595q223 0 418 -99q195 -100 315 -284t121 -411q-1 -375 -241 -614t-613 -239t-613 240q-240 238 -241 613q0 227 121 411q122 184 316 284t417 99z" />
    <glyph glyph-name="Odieresis" unicode="&#xd6;" horiz-adv-x="1816" 
d="M969 1870q0 84 59 142t142 59q82 -1 142 -59t60 -142t-58 -142t-142 -59q-84 0 -144 58q-59 59 -59 143zM646 2071q83 -1 142 -59q60 -58 60 -142t-58 -142t-142 -59q-84 0 -144 58q-60 59 -60 143t60 142t142 59zM907 1206q-178 0 -307 -123t-129 -284q0 -197 127 -329
t309 -132t310 132q127 132 126 329q0 163 -129 285t-307 122zM907 1595q223 0 418 -99q195 -100 315 -284t121 -411q-1 -375 -241 -614t-613 -239t-613 240q-240 238 -241 613q0 227 121 411q122 184 316 284t417 99z" />
    <glyph glyph-name="multiply" unicode="&#xd7;" 
d="M487 524l-309 310l217 217l307 -312l306 312l217 -217l-305 -310l307 -307l-217 -217l-308 307l-307 -307l-217 217z" />
    <glyph glyph-name="Oslash" unicode="&#xd8;" horiz-adv-x="1816" 
d="M53 801q0 227 121 411q122 184 316 284t417 99q283 0 512 -159l195 190l160 -164l-185 -182q172 -205 172 -479q-1 -375 -241 -614t-613 -238q-297 0 -514 157l-190 -188l-160 164l184 182q-174 225 -174 537zM907 338q182 0 310 132q127 132 126 329q0 102 -53 186
l-600 -588q96 -59 217 -59zM907 1206q-178 0 -307 -123t-129 -271t61 -249l594 584q-102 59 -219 59z" />
    <glyph glyph-name="Ugrave" unicode="&#xd9;" horiz-adv-x="1593" 
d="M498 1948l227 163l289 -352l-166 -121zM1069 1544h401v-868q0 -188 -30 -316t-131 -229q-174 -172 -512 -172t-512 172q-102 100 -132 228t-30 317v868h401v-813q0 -244 65 -332q67 -88 208 -88q74 0 127 26q53 27 81 63q64 83 64 331v813z" />
    <glyph glyph-name="Uacute" unicode="&#xda;" horiz-adv-x="1593" 
d="M1096 1948l-351 -310l-165 121l288 352zM1069 1544h401v-868q0 -188 -30 -316t-131 -229q-174 -172 -512 -172t-512 172q-102 100 -132 228t-30 317v868h401v-813q0 -244 65 -332q67 -88 208 -88q74 0 127 26q53 27 81 63q64 83 64 331v813z" />
    <glyph glyph-name="Ucircumflex" unicode="&#xdb;" horiz-adv-x="1593" 
d="M346 1794l447 336l452 -336l-158 -172l-294 227l-295 -227zM1069 1544h401v-868q0 -188 -30 -316t-131 -229q-174 -172 -512 -172t-512 172q-102 100 -132 228t-30 317v868h401v-813q0 -244 65 -332q67 -88 208 -88q74 0 127 26q53 27 81 63q64 83 64 331v813z" />
    <glyph glyph-name="Udieresis" unicode="&#xdc;" horiz-adv-x="1593" 
d="M1059 2071q84 -1 142 -59q59 -58 59 -142t-58 -142t-143 -59q-84 0 -144 58q-59 59 -59 143t60 142t143 59zM535 2071q84 -1 142 -59t58 -142t-58 -142t-142 -59q-84 0 -144 58q-59 59 -59 143t60 142t143 59zM1069 1544h401v-868q0 -188 -30 -316t-131 -229
q-174 -172 -512 -172t-512 172q-102 100 -132 228t-30 317v868h401v-813q0 -244 65 -332q67 -88 208 -88q74 0 127 26q53 27 81 63q64 83 64 331v813z" />
    <glyph glyph-name="Yacute" unicode="&#xdd;" horiz-adv-x="1462" 
d="M1071 1948l-350 -310l-166 121l289 352zM932 0h-402v741l-569 803h481l289 -420l289 420h481l-569 -803v-741z" />
    <glyph glyph-name="Thorn" unicode="&#xde;" horiz-adv-x="1353" 
d="M532 975v-385h68q184 0 231 41q56 44 57 146t-54 155q-49 43 -234 43h-68zM131 0v1544h401v-246h213q260 0 411 -126t151 -381q0 -524 -547 -525h-228v-266h-401z" />
    <glyph glyph-name="germandbls" unicode="&#xdf;" horiz-adv-x="1333" 
d="M123 905v301q0 266 127 379q144 135 384 135t386 -118q145 -119 145 -334q0 -104 -45 -178t-137 -144q157 -64 231 -162t74 -274q0 -114 -42 -228q-117 -316 -562 -317h-80v318q119 -5 198 63t79 184t-81 187q-81 72 -196 63v297q92 -4 148 37q55 41 55 121t-42 122
q-43 42 -105 42q-118 0 -143 -76q-21 -63 -21 -158v-1165h-373v608h-107v297h107z" />
    <glyph glyph-name="agrave" unicode="&#xe0;" horiz-adv-x="1396" 
d="M440 1516l228 163l288 -352l-165 -121zM1272 1051v-1051h-373v117h-4q-47 -76 -133 -114t-184 -38q-229 0 -380 165t-151 396q1 232 149 396t367 164t336 -138v103h373zM672 762q-112 0 -176 -69t-64 -170t65 -168t175 -67t176 68q64 66 64 167t-65 170q-64 69 -175 69z
" />
    <glyph glyph-name="aacute" unicode="&#xe1;" horiz-adv-x="1396" 
d="M997 1516l-350 -310l-166 121l289 352zM1272 1051v-1051h-373v117h-4q-47 -76 -133 -114t-184 -38q-229 0 -380 165t-151 396q1 232 149 396t367 164t336 -138v103h373zM672 762q-112 0 -176 -69t-64 -170t65 -168t175 -67t176 68q64 66 64 167t-65 170q-64 69 -175 69z
" />
    <glyph glyph-name="acircumflex" unicode="&#xe2;" horiz-adv-x="1396" 
d="M248 1362l446 336l453 -336l-158 -172l-295 227l-295 -227zM1272 1051v-1051h-373v117h-4q-47 -76 -133 -114t-184 -38q-229 0 -380 165t-151 396q1 232 149 396t367 164t336 -138v103h373zM672 762q-112 0 -176 -69t-64 -170t65 -168t175 -67t176 68q64 66 64 167
t-65 170q-64 69 -175 69z" />
    <glyph glyph-name="atilde" unicode="&#xe3;" horiz-adv-x="1396" 
d="M518 1581q55 0 175 -35t157 -35q37 -1 53 17t31 57h174q-10 -127 -78 -225t-188 -98q-52 0 -158 38t-150 37q-44 0 -61 -37q-4 -9 -12 -38h-168l-2 22q0 106 45 182q68 115 182 115zM1272 1051v-1051h-373v117h-4q-47 -76 -133 -114t-184 -38q-229 0 -380 165t-151 396
q1 232 149 396t367 164t336 -138v103h373zM672 762q-112 0 -176 -69t-64 -170t65 -168t175 -67t176 68q64 66 64 167t-65 170q-64 69 -175 69z" />
    <glyph glyph-name="adieresis" unicode="&#xe4;" horiz-adv-x="1396" 
d="M961 1638q84 0 142 -59t58 -142t-58 -141t-142 -59q-84 0 -144 58q-59 59 -59 143t59 142q60 58 144 58zM436 1638q84 0 142 -59t59 -142q0 -83 -58 -141q-59 -58 -143 -59q-84 0 -143 58q-59 59 -59 143t58 142q60 58 144 58zM1272 1051v-1051h-373v117h-4
q-47 -76 -133 -114t-184 -38q-229 0 -380 165t-151 396q1 232 149 396t367 164t336 -138v103h373zM672 762q-112 0 -176 -69t-64 -170t65 -168t175 -67t176 68q64 66 64 167t-65 170q-64 69 -175 69z" />
    <glyph glyph-name="aring" unicode="&#xe5;" horiz-adv-x="1396" 
d="M819 1434q0 44 -36 66t-84 22t-84 -22q-35 -22 -35 -66t36 -67q36 -21 83 -21q48 0 84 22t36 66zM697 1669q133 0 225 -56t92 -178q0 -121 -91 -179t-221 -58t-224 55q-93 55 -93 179t90 180q90 57 222 57zM1272 1051v-1051h-373v117h-4q-47 -76 -133 -114t-184 -38
q-229 0 -380 165t-151 396q1 232 149 396t367 164t336 -138v103h373zM672 762q-112 0 -176 -69t-64 -170t65 -168t175 -67t176 68q64 66 64 167t-65 170q-64 69 -175 69z" />
    <glyph glyph-name="ae" unicode="&#xe6;" horiz-adv-x="1925" 
d="M1880 463h-784q0 -233 233 -234q121 0 178 97h359q-43 -176 -193 -268t-342 -93q-139 0 -257 49t-165 158q-75 -96 -189 -152t-228 -55q-114 0 -212 35q-97 35 -167 115t-70 188q0 176 125 263q126 87 290 87t294 -53v31q0 184 -250 184q-113 0 -293 -57v278
q182 49 305 49q299 0 395 -186q59 90 168 138t228 48q272 -1 424 -157t151 -426v-39zM568 446q-66 0 -114 -28t-48 -85q0 -56 52 -84t114 -28t125 28t63 86q0 59 -64 85q-62 26 -128 26zM1326 844q-82 0 -142 -43t-76 -123h432q-14 74 -74 120t-140 46z" />
    <glyph glyph-name="ccedilla" unicode="&#xe7;" horiz-adv-x="989" 
d="M729 -193l-309 -292l-160 100l266 324zM432 524q0 -112 74 -184t186 -72t189 72v-315q-119 -59 -263 -60q-238 0 -404 157q-166 158 -167 400q0 242 169 403t419 160q135 0 246 -61v-315q-100 73 -201 73q-100 0 -174 -74t-74 -184z" />
    <glyph glyph-name="egrave" unicode="&#xe8;" horiz-adv-x="1249" 
d="M315 1516l228 163l288 -352l-165 -121zM1202 502v-39h-784q0 -233 233 -234q121 0 178 97h359q-43 -176 -193 -268t-342 -93q-270 -1 -439 147t-169 410t161 413t427 151t418 -157q151 -157 151 -427zM642 844q-82 0 -142 -43t-76 -123h432q-14 74 -74 120t-140 46z" />
    <glyph glyph-name="eacute" unicode="&#xe9;" horiz-adv-x="1249" 
d="M934 1516l-350 -310l-166 121l289 352zM1202 502v-39h-784q0 -233 233 -234q121 0 178 97h359q-43 -176 -193 -268t-342 -93q-270 -1 -439 147t-169 410t161 413t427 151t418 -157q151 -157 151 -427zM642 844q-82 0 -142 -43t-76 -123h432q-14 74 -74 120t-140 46z" />
    <glyph glyph-name="ecircumflex" unicode="&#xea;" horiz-adv-x="1249" 
d="M174 1362l447 336l452 -336l-158 -172l-294 227l-295 -227zM1202 502v-39h-784q0 -233 233 -234q121 0 178 97h359q-43 -176 -193 -268t-342 -93q-270 -1 -439 147t-169 410t161 413t427 151t418 -157q151 -157 151 -427zM642 844q-82 0 -142 -43t-76 -123h432
q-14 74 -74 120t-140 46z" />
    <glyph glyph-name="edieresis" unicode="&#xeb;" horiz-adv-x="1249" 
d="M887 1638q84 0 142 -59t58 -142t-58 -141t-142 -59q-84 0 -144 58q-59 59 -59 143t59 142q60 58 144 58zM362 1638q84 0 142 -59t59 -142q0 -83 -58 -141q-59 -58 -143 -59q-84 0 -143 58q-59 59 -59 143t59 142t143 58zM1202 502v-39h-784q0 -233 233 -234q121 0 178 97
h359q-43 -176 -193 -268t-342 -93q-270 -1 -439 147t-169 410t161 413t427 151t418 -157q151 -157 151 -427zM642 844q-82 0 -142 -43t-76 -123h432q-14 74 -74 120t-140 46z" />
    <glyph glyph-name="igrave" unicode="&#xec;" horiz-adv-x="618" 
d="M20 1516l228 163l289 -352l-166 -121zM496 1051v-1051h-373v1051h373z" />
    <glyph glyph-name="iacute" unicode="&#xed;" horiz-adv-x="618" 
d="M598 1516l-350 -310l-166 121l289 352zM496 1051v-1051h-373v1051h373z" />
    <glyph glyph-name="icircumflex" unicode="&#xee;" horiz-adv-x="618" 
d="M-141 1362l446 336l453 -336l-158 -172l-295 227l-295 -227zM496 1051v-1051h-373v1051h373z" />
    <glyph glyph-name="idieresis" unicode="&#xef;" horiz-adv-x="618" 
d="M571 1638q85 0 143 -59t58 -142t-58 -141t-142 -59q-84 0 -144 58q-59 59 -59 143t59 142t143 58zM47 1638q84 0 142 -59q59 -59 59 -142t-58 -141t-143 -59q-84 0 -143 58q-60 59 -60 143t60 142t143 58zM496 1051v-1051h-373v1051h373z" />
    <glyph glyph-name="eth" unicode="&#xf0;" horiz-adv-x="1355" 
d="M678 762q-112 0 -176 -69t-64 -170t65 -168t175 -67t176 68q64 66 64 167t-64 170t-176 69zM1311 582q-1 -138 -55 -265t-146 -201q-186 -150 -444 -151q-215 0 -408 130q-94 65 -154 177t-59 250q0 242 170 390t389 149q51 0 121 -12q-104 129 -231 229l-267 -141
l-135 145l223 119q-116 74 -231 123l217 213q223 -104 324 -170l260 137l133 -150l-213 -112q94 -80 154 -134q61 -54 135 -140t115 -161q102 -187 102 -425z" />
    <glyph glyph-name="ntilde" unicode="&#xf1;" horiz-adv-x="1353" 
d="M496 1581q55 0 175 -35q121 -35 157 -35q36 -1 52 17t31 57h174q-9 -127 -77 -225t-189 -98q-53 0 -159 38t-150 37q-45 0 -59 -37q-5 -9 -13 -38h-168l-2 22q0 106 45 182q68 115 183 115zM496 1051v-136h4q115 170 327 170q404 0 404 -436v-649h-373v581q0 53 -10 92
q-19 73 -66 94t-92 21q-195 0 -194 -243v-545h-373v1051h373z" />
    <glyph glyph-name="ograve" unicode="&#xf2;" horiz-adv-x="1355" 
d="M369 1516l227 163l289 -352l-166 -121zM678 762q-112 0 -176 -69t-64 -170t65 -168t175 -67t176 68q64 66 64 167t-64 170t-176 69zM678 1085q266 1 449 -151t183 -410t-182 -408q-184 -150 -449 -151q-265 0 -450 151q-184 150 -184 408t183 410q184 151 450 151z" />
    <glyph glyph-name="oacute" unicode="&#xf3;" horiz-adv-x="1355" 
d="M987 1516l-350 -310l-166 121l289 352zM678 762q-112 0 -176 -69t-64 -170t65 -168t175 -67t176 68q64 66 64 167t-64 170t-176 69zM678 1085q266 1 449 -151t183 -410t-182 -408q-184 -150 -449 -151q-265 0 -450 151q-184 150 -184 408t183 410q184 151 450 151z" />
    <glyph glyph-name="ocircumflex" unicode="&#xf4;" horiz-adv-x="1355" 
d="M227 1362l447 336l452 -336l-157 -172l-295 227l-295 -227zM678 762q-112 0 -176 -69t-64 -170t65 -168t175 -67t176 68q64 66 64 167t-64 170t-176 69zM678 1085q266 1 449 -151t183 -410t-182 -408q-184 -150 -449 -151q-265 0 -450 151q-184 150 -184 408t183 410
q184 151 450 151z" />
    <glyph glyph-name="otilde" unicode="&#xf5;" horiz-adv-x="1355" 
d="M498 1581q55 0 175 -35q121 -35 157 -35q36 -1 52 17t31 57h174q-9 -127 -77 -225t-189 -98q-53 0 -158 38t-151 37q-46 0 -59 -37q-5 -9 -13 -38h-168l-2 22q0 106 45 182q68 115 183 115zM678 762q-112 0 -176 -69t-64 -170t65 -168t175 -67t176 68q64 66 64 167
t-64 170t-176 69zM678 1085q266 1 449 -151t183 -410t-182 -408q-184 -150 -449 -151q-265 0 -450 151q-184 150 -184 408t183 410q184 151 450 151z" />
    <glyph glyph-name="odieresis" unicode="&#xf6;" horiz-adv-x="1355" 
d="M940 1638q84 0 142 -59t58 -142t-58 -141t-142 -59q-84 0 -143 58q-59 59 -59 143t58 142q60 58 144 58zM416 1638q84 0 142 -59t58 -142t-58 -141t-142 -59q-84 0 -144 58q-59 59 -59 143t59 142q60 58 144 58zM678 762q-112 0 -176 -69t-64 -170t65 -168t175 -67
t176 68q64 66 64 167t-64 170t-176 69zM678 1085q266 1 449 -151t183 -410t-182 -408q-184 -150 -449 -151q-265 0 -450 151q-184 150 -184 408t183 410q184 151 450 151z" />
    <glyph glyph-name="divide" unicode="&#xf7;" 
d="M702 1087q60 0 104 -43t44 -104t-43 -104t-105 -43t-104 43q-43 43 -43 104t43 104t104 43zM702 260q60 0 104 -43t44 -104t-43 -105t-105 -43q-62 0 -104 43q-43 42 -43 104t43 105t104 43zM178 680h1049v-307h-1049v307z" />
    <glyph glyph-name="oslash" unicode="&#xf8;" horiz-adv-x="1355" 
d="M45 524q0 258 183 410t450 151q193 0 346 -81l145 143l144 -127l-135 -135q133 -150 133 -361q1 -258 -183 -408t-450 -151q-195 0 -346 82l-146 -143l-143 129l135 133q-133 145 -133 358zM678 289q112 1 176 67t64 168q-1 47 -15 88l-313 -309q37 -14 88 -14zM678 762
q-112 0 -176 -69t-64 -169q1 -51 15 -86l313 310q-43 14 -88 14z" />
    <glyph glyph-name="ugrave" unicode="&#xf9;" horiz-adv-x="1349" 
d="M356 1516l228 163l288 -352l-165 -121zM117 1051h372v-562q0 -111 40 -169q41 -58 147 -58t146 58t40 169v562h373v-633q0 -453 -559 -453t-559 453v633z" />
    <glyph glyph-name="uacute" unicode="&#xfa;" horiz-adv-x="1349" 
d="M995 1516l-350 -310l-166 121l289 352zM117 1051h372v-562q0 -111 40 -169q41 -58 147 -58t146 58t40 169v562h373v-633q0 -453 -559 -453t-559 453v633z" />
    <glyph glyph-name="ucircumflex" unicode="&#xfb;" horiz-adv-x="1349" 
d="M225 1362l447 336l452 -336l-157 -172l-295 227l-295 -227zM117 1051h372v-562q0 -111 40 -169q41 -58 147 -58t146 58t40 169v562h373v-633q0 -453 -559 -453t-559 453v633z" />
    <glyph glyph-name="udieresis" unicode="&#xfc;" horiz-adv-x="1349" 
d="M937 1638q83 0 142 -59t59 -142t-58 -141t-142 -59q-84 0 -143 58q-59 59 -59 143t58 142q60 58 143 58zM413 1638q83 0 142 -59t59 -142t-58 -141t-142 -59q-84 0 -144 58q-59 59 -59 143t59 142q60 58 143 58zM117 1051h372v-562q0 -111 40 -169q41 -58 147 -58t146 58
t40 169v562h373v-633q0 -453 -559 -453t-559 453v633z" />
    <glyph glyph-name="yacute" unicode="&#xfd;" horiz-adv-x="1339" 
d="M1010 1516l-351 -310l-165 121l288 352zM477 143l-508 908h430l281 -539l274 539h424l-841 -1575h-418z" />
    <glyph glyph-name="thorn" unicode="&#xfe;" horiz-adv-x="1396" 
d="M711 762q-111 0 -175 -69t-65 -170q0 -101 65 -168q66 -67 176 -67t174 68q64 66 64 167t-64 170t-175 69zM483 1700v-768h4q49 76 135 115t183 38q229 1 380 -165t151 -398t-149 -394q-147 -163 -367 -163t-337 135v-624h-372v2224h372z" />
    <glyph glyph-name="ydieresis" unicode="&#xff;" horiz-adv-x="1339" 
d="M962 1638q83 0 142 -59t59 -142t-58 -141t-142 -59q-84 0 -144 58q-59 59 -59 143t59 142q60 58 143 58zM437 1638q83 0 143 -59t59 -142q0 -83 -58 -141q-59 -58 -143 -59q-84 0 -143 58q-59 59 -59 143t59 142t142 58zM477 143l-508 908h430l281 -539l274 539h424
l-841 -1575h-418z" />
    <glyph glyph-name="dotlessi" unicode="&#x131;" horiz-adv-x="618" 
d="M496 1051v-1051h-373v1051h373z" />
    <glyph glyph-name="Lslash" unicode="&#x141;" horiz-adv-x="1091" 
d="M209 1544h401v-409l232 147v-299l-232 -145v-498h482v-340h-883v584l-170 -107v291l170 109v667z" />
    <glyph glyph-name="lslash" unicode="&#x142;" horiz-adv-x="749" 
d="M188 0v678l-172 -105v254l172 107v766h373v-545l172 105v-256l-172 -105v-899h-373z" />
    <glyph glyph-name="OE" unicode="&#x152;" horiz-adv-x="2334" 
d="M904 1206q-179 0 -306 -127t-127 -306t127 -307t305 -128t304 128t126 307t-125 306t-304 127zM1352 0v170q-203 -221 -492 -221q-217 -1 -403 113t-295 304t-109 406t109 406t295 304t403 113q299 0 492 -192v141h868v-340h-469v-258h436v-340h-436v-266h469v-340h-868z
" />
    <glyph glyph-name="oe" unicode="&#x153;" horiz-adv-x="2093" 
d="M2050 502v-39h-784q0 -233 233 -234q121 0 178 97h359q-43 -176 -193 -268t-342 -93q-297 0 -426 182q-90 -100 -188 -141t-238 -41q-266 1 -436 149t-170 408t170 412t432 151q137 -1 237 -35t193 -122q121 158 397 158t426 -158q152 -156 152 -426zM676 762
q-98 0 -169 -71t-71 -168t71 -166t169 -69t169 70q71 68 71 165t-71 168t-169 71zM1484 844q-82 0 -142 -43t-76 -123h432q-14 74 -74 120t-140 46z" />
    <glyph glyph-name="Scaron" unicode="&#x160;" horiz-adv-x="1261" 
d="M180 1956l152 174l295 -229l295 229l157 -174l-452 -334zM713 1249q-63 0 -117 -35t-55 -85q-1 -51 33 -83t64 -44t81 -29l102 -31q181 -53 281 -150t100 -272q0 -281 -166 -421t-444 -140t-531 176l172 324q182 -160 357 -160q78 0 136 40t58 116q0 104 -194 161
q-6 2 -83 24q-166 48 -275 130t-109 306t149 367q150 142 383 142q117 0 249 -35t235 -92l-160 -311q-123 102 -266 102z" />
    <glyph glyph-name="scaron" unicode="&#x161;" horiz-adv-x="1050" 
d="M76 1524l151 174l295 -230l295 230l158 -174l-453 -334zM616 831q-40 0 -78 -18q-38 -19 -38 -51t18 -46q38 -28 71 -34t53 -9t26 -5q305 -61 305 -312q-1 -194 -147 -292t-361 -98t-412 120l135 260q62 -43 146 -75q84 -31 138 -31t91 20t37 51q0 55 -46 75t-104 32
q-59 12 -83 18q-106 29 -170 89q-63 59 -63 185t69 213q132 164 393 162q196 1 346 -67l-125 -238q-96 51 -201 51z" />
    <glyph glyph-name="Ydieresis" unicode="&#x178;" horiz-adv-x="1462" 
d="M1014 2071q84 -1 142 -59t58 -142t-58 -142t-142 -59q-84 0 -144 58q-59 59 -59 143q-1 84 59 142t144 59zM489 2071q85 -1 143 -59t58 -142t-58 -142t-142 -59q-84 0 -144 58q-59 59 -59 143t59 142t143 59zM932 0h-402v741l-569 803h481l289 -420l289 420h481
l-569 -803v-741z" />
    <glyph glyph-name="Zcaron" unicode="&#x17d;" horiz-adv-x="1447" 
d="M295 1956l151 174l295 -229l295 229l158 -174l-453 -334zM1346 340v-340h-1323l731 1204h-607v340h1278l-727 -1204h648z" />
    <glyph glyph-name="zcaron" unicode="&#x17e;" horiz-adv-x="1144" 
d="M123 1524l151 174l295 -230l295 230l158 -174l-453 -334zM1081 309v-309h-1065l494 741h-428v310h1048l-491 -742h442z" />
    <glyph glyph-name="florin" unicode="&#x192;" 
d="M1090 1700q164 0 266 -70l-60 -321q-84 61 -147 61t-96 -36t-51 -100t-17 -87l-20 -113h225l-27 -155h-225l-104 -572q-29 -165 -65 -275t-110 -206q-172 -221 -454 -197l-217 19l61 338q106 -18 167 -18q129 -1 190 138q29 74 69 295l86 478h-176l25 155h180l41 221
q20 107 46 175t81 129q127 141 332 141z" />
    <glyph glyph-name="circumflex" unicode="&#x2c6;" horiz-adv-x="1208" 
d="M154 1362l446 336l453 -336l-158 -172l-295 227l-295 -227z" />
    <glyph glyph-name="caron" unicode="&#x2c7;" horiz-adv-x="1208" 
d="M154 1524l151 174l295 -230l295 230l158 -174l-453 -334z" />
    <glyph glyph-name="breve" unicode="&#x2d8;" horiz-adv-x="1103" 
d="M551 1468q68 0 114 36t56 102h227q-8 -164 -118 -255t-280 -91t-279 91t-117 255h229q10 -66 55 -102t113 -36z" />
    <glyph glyph-name="dotaccent" unicode="&#x2d9;" horiz-adv-x="823" 
d="M413 1638q83 0 142 -59t59 -142t-58 -141t-142 -59q-84 0 -144 58q-59 59 -59 143t59 142q60 58 143 58z" />
    <glyph glyph-name="ring" unicode="&#x2da;" horiz-adv-x="935" 
d="M588 1434q0 44 -36 66t-84 22t-84 -22t-36 -66t36 -67q36 -21 84 -21t84 22t36 66zM466 1669q132 0 224 -56t92 -178q0 -121 -91 -179t-221 -58t-223 55t-93 179t90 180q90 57 222 57z" />
    <glyph glyph-name="ogonek" unicode="&#x2db;" horiz-adv-x="716" 
d="M479 0v-4q-123 -70 -123 -152q0 -38 28 -66t70 -28t107 39l-45 -188q-64 -39 -152 -39t-149 51t-61 128t48 145t124 114h153z" />
    <glyph glyph-name="tilde" unicode="&#x2dc;" horiz-adv-x="1124" 
d="M381 1581q55 0 175 -35t157 -35q37 -1 53 17t31 57h174q-10 -127 -78 -225t-188 -98q-53 0 -159 38t-151 37q-46 0 -59 -37q-4 -9 -12 -38h-168l-2 22q0 106 45 182q68 115 182 115z" />
    <glyph glyph-name="hungarumlaut" unicode="&#x2dd;" horiz-adv-x="1103" 
d="M877 1667l-103 -438h-190l28 438h265zM520 1667l-102 -438h-191l29 438h264z" />
    <glyph glyph-name="mu" unicode="&#x3bc;" horiz-adv-x="1349" 
d="M117 1051h372v-562q0 -111 40 -169q41 -58 147 -58t146 58t40 169v562h373v-633q0 -127 -46 -220q-78 -157 -275 -211q-77 -22 -156 -22q-164 0 -269 101v-590h-372v1575z" />
    <glyph glyph-name="endash" unicode="&#x2013;" horiz-adv-x="1024" 
d="M0 811h1024v-307h-1024v307z" />
    <glyph glyph-name="emdash" unicode="&#x2014;" horiz-adv-x="2048" 
d="M266 811h1516v-307h-1516v307z" />
    <glyph glyph-name="quoteleft" unicode="&#x2018;" horiz-adv-x="761" 
d="M387 866h-348l377 678h237z" />
    <glyph glyph-name="quoteright" unicode="&#x2019;" horiz-adv-x="761" 
d="M375 1544h348l-377 -678h-237z" />
    <glyph glyph-name="quotesinglbase" unicode="&#x201a;" horiz-adv-x="692" 
d="M305 391h348l-377 -678h-237z" />
    <glyph glyph-name="quotedblleft" unicode="&#x201c;" horiz-adv-x="1286" 
d="M387 866h-348l377 678h237zM911 866h-348l377 678h238z" />
    <glyph glyph-name="quotedblright" unicode="&#x201d;" horiz-adv-x="1286" 
d="M899 1544h348l-377 -678h-237zM375 1544h348l-377 -678h-237z" />
    <glyph glyph-name="quotedblbase" unicode="&#x201e;" horiz-adv-x="1216" 
d="M829 391h349l-377 -678h-238zM305 391h348l-377 -678h-237z" />
    <glyph glyph-name="dagger" unicode="&#x2020;" 
d="M532 1544h340v-420h363v-295h-363v-1198h-340v1198h-360v295h360v420z" />
    <glyph glyph-name="daggerdbl" unicode="&#x2021;" 
d="M535 1544h339v-379h361v-295h-361v-290h361v-295h-361v-652h-339v652h-363v295h363v290h-363v295h363v379z" />
    <glyph glyph-name="bullet" unicode="&#x2022;" 
d="M705 1159q165 -1 275 -113t110 -273t-111 -273t-275 -113q-164 0 -275 113q-112 114 -112 274t112 272t276 113z" />
    <glyph glyph-name="ellipsis" unicode="&#x2026;" horiz-adv-x="2048" 
d="M342 438q100 0 170 -70t70 -168q0 -99 -70 -170t-170 -71t-170 71t-70 170q0 98 70 168t170 70zM1706 438q100 0 170 -70t70 -168q0 -99 -70 -170t-170 -71t-170 71t-70 170q0 98 70 168t170 70zM1024 438q100 0 170 -70t70 -168q0 -99 -70 -170t-170 -71t-170 71
t-70 170q0 98 70 168t170 70z" />
    <glyph glyph-name="perthousand" unicode="&#x2030;" horiz-adv-x="2990" 
d="M2529 530q-72 0 -123 -51t-51 -123t51 -122t123 -50t123 50t51 122t-51 123t-123 51zM2529 735q180 0 301 -99q121 -100 121 -278t-119 -278t-303 -100t-303 100t-119 278t121 278t301 99zM1536 530q-72 0 -123 -51t-51 -123t51 -122t123 -50t123 50t51 122t-51 123
t-123 51zM1536 735q180 0 301 -99q121 -100 121 -278t-119 -278t-303 -100t-303 100t-119 278t121 278t301 99zM1346 1544h200l-897 -1544h-200zM461 1360q-72 0 -123 -51t-51 -123t51 -122t123 -50t123 50t51 122t-51 123t-123 51zM461 1565q180 1 301 -99t121 -278
t-119 -278t-303 -101q-184 0 -303 100q-119 101 -119 279t121 278t301 99z" />
    <glyph glyph-name="guilsinglleft" unicode="&#x2039;" horiz-adv-x="724" 
d="M352 655l264 -356l-210 -147l-353 503l353 504l204 -141z" />
    <glyph glyph-name="guilsinglright" unicode="&#x203a;" horiz-adv-x="724" 
d="M109 299l264 356l-258 363l204 141l353 -504l-353 -503z" />
    <glyph glyph-name="fraction" unicode="&#x2044;" horiz-adv-x="397" 
d="M547 1544h201l-898 -1544h-200z" />
    <glyph glyph-name="Euro" unicode="&#x20ac;" horiz-adv-x="1411" 
d="M1008 1225q-295 0 -398 -258h670l-39 -156h-663q-8 -57 4 -125h628l-49 -156h-534q115 -244 387 -243q59 1 148 27t145 61v-383q-125 -53 -301 -53q-303 1 -510 161t-271 430h-215l49 156h144q-4 53 -4 84v41h-189l49 156h160q59 279 264 440q205 166 510 166
q113 -1 242 -23t186 -69l-96 -357q-47 37 -143 69t-174 32z" />
    <glyph glyph-name="trademark" unicode="&#x2122;" horiz-adv-x="1925" 
d="M786 1544v-160h-251v-667h-199v667h-252v160h702zM1841 1544v-827h-180v667h-4l-240 -667h-106l-240 667h-4v-667h-180v827h291l186 -489l186 489h291z" />
    <glyph glyph-name="minus" unicode="&#x2212;" 
d="M178 680h1049v-307h-1049v307z" />
    <glyph glyph-name="fi" unicode="&#xfb01;" horiz-adv-x="1390" 
d="M1081 1663q85 0 147 -61q62 -62 62 -148t-61 -147t-147 -61t-148 60q-61 62 -62 148q0 86 62 148t147 61zM1268 1051v-1051h-373v1051h373zM520 743v-743h-373v743h-131v308h131v133q1 131 19 210t88 158q143 168 367 168q88 0 159 -37v-321q-82 35 -142 35
q-118 0 -118 -176v-170h260v-308h-260z" />
    <glyph glyph-name="fl" unicode="&#xfb02;" horiz-adv-x="1413" 
d="M520 743v-743h-373v743h-131v308h131v133q1 131 19 210t88 158q143 168 367 168q88 0 159 -37v-321q-82 35 -142 35q-118 0 -118 -176v-170h260v-308h-260zM1290 1700v-1700h-372v1700h372z" />
    <glyph glyph-name="hyphen" horiz-adv-x="802" 
d="M109 811h585v-307h-585v307z" />
    <glyph glyph-name="oldcurrency" 
d="M709 1040q-115 0 -192 -78t-77 -194t76 -186t193 -70t193 71t75 185t-77 194q-76 78 -191 78zM100 311l136 135q-102 135 -102 338t102 328l-136 137l127 129l138 -137q139 107 342 107t329 -107l138 137l126 -127l-126 -129q110 -150 110 -348t-115 -325l136 -136
l-123 -133l-138 135q-130 -111 -338 -111t-344 113l-135 -135z" />
    </font>
</defs>
</svg>
